<?xml version="1.0" encoding="utf-8"?>
<!-- Generator: Adobe Illustrator 24.1.2, SVG Export Plug-In . SVG Version: 6.00 Build 0)  -->
<svg version="1.1" id="Layer_1" xmlns="http://www.w3.org/2000/svg" xmlns:xlink="http://www.w3.org/1999/xlink" x="0px" y="0px"
	 viewBox="0 0 100 100" style="enable-background:new 0 0 100 100;" xml:space="preserve">
<style type="text/css">
	.st0{fill:none;stroke:#2E3192;stroke-width:2;stroke-miterlimit:10;}
</style>
<g>
	<path id="XMLID_347_" class="st0" d="M34.04,56.65l-1.67,1.67c-0.79,0.79-0.79,2.08,0,2.88l6.43,6.43c0.79,0.79,2.08,0.79,2.88,0
		l1.67-1.67L34.04,56.65z"/>
	<path id="XMLID_346_" class="st0" d="M82.95,17.05c-20.71,2.54-39.88,23.01-39.88,23.01l-0.01-0.01L30.25,52.86l16.89,16.89
		l12.81-12.81l-0.01-0.01C59.94,56.93,80.41,37.76,82.95,17.05z"/>
	<path id="XMLID_345_" class="st0" d="M43.06,40.05c0,0-9.46-5.91-20.5,5.13l-5.52,5.52l2.5,2.5c0,0,8.54-7.79,13.35-2.98
		L43.06,40.05z"/>
	<path id="XMLID_344_" class="st0" d="M59.95,56.94c0,0,5.91,9.46-5.13,20.5l-5.52,5.52l-2.5-2.5c0,0,7.79-8.54,2.98-13.35
		L59.95,56.94z"/>
	<circle id="XMLID_341_" class="st0" cx="58.26" cy="41.74" r="8"/>
	
		<rect id="XMLID_338_" x="44.43" y="42.3" transform="matrix(0.7071 -0.7071 0.7071 0.7071 -24.9587 48.2404)" class="st0" width="2.65" height="23.89"/>
	<path id="XMLID_337_" class="st0" d="M38.8,67.63l-3.21-3.21l-3.21-3.21c0,0-9.8,3.2-9.31,15.74C35.6,77.42,38.8,67.63,38.8,67.63z
		"/>
	<path id="XMLID_329_" class="st0" d="M37.74,66.56l-2.15-2.15l-2.15-2.15c0,0-6.56,2.14-6.23,10.53
		C35.6,73.12,37.74,66.56,37.74,66.56z"/>
	<path class="st0" d="M74.17,39.38c4.13-6.53,7.8-14.32,8.78-22.33c-8.02,0.98-15.8,4.65-22.33,8.78L74.17,39.38z"/>
</g>
</svg>
